<svg xmlns="http://www.w3.org/2000/svg" xmlns:xlink="http://www.w3.org/1999/xlink" width="54.257" height="70.413" viewBox="0 0 54.257 70.413">
  <defs>
    <clipPath id="clip-path">
      <path id="Path_208" data-name="Path 208" d="M0,21.594H54.257V-48.819H0Z" transform="translate(0 48.819)" fill="#46af4e"/>
    </clipPath>
  </defs>
  <g id="Group_922" data-name="Group 922" clip-path="url(#clip-path)">
    <g id="Group_921" data-name="Group 921" transform="translate(0 0)">
      <path id="Path_207" data-name="Path 207" d="M2.165,18.749a13.889,13.889,0,0,1,6.884,2.6c.8.538,1.588,1.1,2.377,1.663.525.371.561.544.065.989-2.12,1.9-3.88,2.189-6.362.557a50.292,50.292,0,0,1-3.906-3.186c-1.369-1.116-2.723-2.254-4.139-3.3a10.667,10.667,0,0,0-1.979-.9,9.015,9.015,0,0,1,3.188-1.529,20.76,20.76,0,0,1,3.428-.943,34.37,34.37,0,0,1,3.64-.216V-41.359c0-1.011,0-1.011.988-1.011,1.044,0,2.09.039,3.131-.014.643-.033.8.193.8.844q-.028,15-.013,30V-9.5l.175.066c.263-.316.509-.649.789-.946a21.287,21.287,0,0,1,12.538-6.913,25.492,25.492,0,0,1,5.534-.245,19.259,19.259,0,0,1,9.537,3.314,24.21,24.21,0,0,1,3.8,3.012,22.883,22.883,0,0,1,5.213,8.119,24,24,0,0,1,1.467,9.753,22.83,22.83,0,0,1-1.832,7.728,22.307,22.307,0,0,1-5.511,7.846A21.426,21.426,0,0,1,31.971,27.5a21.68,21.68,0,0,1-5.51.5,21.318,21.318,0,0,1-8.015-1.94,30.007,30.007,0,0,1-6.387-4.351,13.4,13.4,0,0,0-6.167-3.1,7.759,7.759,0,0,0-3.727.134m42.143-13.5c.1-9.707-7.686-17.671-16.879-17.694-9.421-.025-17.1,7.914-17.077,17.644a17.412,17.412,0,0,0,16.412,17.6c9.737.363,17.658-8.12,17.544-17.553" transform="translate(4.895 42.387)" fill="#46af4e"/>
    </g>
  </g>
</svg>
