<svg id="Group_22" data-name="Group 22" xmlns="http://www.w3.org/2000/svg" xmlns:xlink="http://www.w3.org/1999/xlink" width="152.301" height="62.401" viewBox="0 0 152.301 62.401">
  <defs>
    <clipPath id="clip-path">
      <rect id="Rectangle_20" data-name="Rectangle 20" width="152.301" height="62.401" fill="#d5edc4"/>
    </clipPath>
  </defs>
  <g id="Group_21" data-name="Group 21" clip-path="url(#clip-path)">
    <path id="Path_7" data-name="Path 7" d="M29.9,21.952a20.192,20.192,0,0,0-15.785,7.6V0H9.673V50.627c-2.39-.387-5.542.114-9.673,2.19,5.764,1.056,9.87,11.319,15.548,5.8l.207-.206c-3.851-2.884-6.873-4.45-9.926-4.049,3.971-1.257,7.343.331,10.526,2.814A20.219,20.219,0,1,0,29.9,21.952m0,36.01A15.786,15.786,0,1,1,45.683,42.177,15.8,15.8,0,0,1,29.9,57.962" fill="#d5edc4"/>
    <path id="Path_8" data-name="Path 8" d="M290.527,94.172h1.85v8.038h.047a9.424,9.424,0,0,1,.569-.77,3.866,3.866,0,0,1,.783-.688,4.525,4.525,0,0,1,1.209-.569,5.426,5.426,0,0,1,1.636-.226,5.528,5.528,0,0,1,1.932.356,5.3,5.3,0,0,1,1.766,1.1,5.377,5.377,0,0,1,1.292,1.921,7.121,7.121,0,0,1,.486,2.738,7.238,7.238,0,0,1-.427,2.514,5.989,5.989,0,0,1-1.2,2,5.232,5.232,0,0,1-1.826,1.292,5.713,5.713,0,0,1-2.264.45,4.715,4.715,0,0,1-1.517-.225,3.7,3.7,0,0,1-1.126-.593,4.535,4.535,0,0,1-.759-.747,7.1,7.1,0,0,1-.557-.83h-.047V112h-1.85Zm8.489,8.584a3.649,3.649,0,0,0-2.751-1.138,3.692,3.692,0,0,0-2.751,1.174,4.66,4.66,0,0,0-1.138,3.379,4.879,4.879,0,0,0,1.067,3.213,3.553,3.553,0,0,0,2.893,1.292,3.285,3.285,0,0,0,2.786-1.3,5.24,5.24,0,0,0,.984-3.248,4.691,4.691,0,0,0-1.091-3.367" transform="translate(-232.623 -75.403)" fill="#d5edc4"/>
    <path id="Path_9" data-name="Path 9" d="M373.088,133.111h-.047a3.219,3.219,0,0,1-1.672,1.458,6.206,6.206,0,0,1-2.312.438,4.558,4.558,0,0,1-3.154-1.02,3.242,3.242,0,0,1-1.138-2.514,3.278,3.278,0,0,1,1.031-2.608,5.592,5.592,0,0,1,3.4-1.02h.19q2.395-.142,3.7-.19v-.9a2.863,2.863,0,0,0-.676-2.016,3.074,3.074,0,0,0-2.336-.735,3.492,3.492,0,0,0-2.241.581,2.68,2.68,0,0,0-.889,1.672h-1.826a4.051,4.051,0,0,1,1.553-2.857,5.757,5.757,0,0,1,3.426-.913,5.492,5.492,0,0,1,3.6,1.031,3.635,3.635,0,0,1,1.233,2.953v5.881q0,.5.047,1.09t.119,1.233h-2.016Zm0-4.055-3.13.142a5.067,5.067,0,0,0-2.395.569,1.751,1.751,0,0,0-.806,1.612,1.873,1.873,0,0,0,.735,1.506,3,3,0,0,0,1.968.6,4.63,4.63,0,0,0,1.269-.178,4.062,4.062,0,0,0,1.174-.545,2.728,2.728,0,0,0,.866-.937,2.615,2.615,0,0,0,.32-1.3Z" transform="translate(-292.065 -98.075)" fill="#d5edc4"/>
    <path id="Path_10" data-name="Path 10" d="M446.664,128.087a3.46,3.46,0,0,0-.735-2.466,2.5,2.5,0,0,0-1.873-.759,3.143,3.143,0,0,0-2.347,1.008,3.844,3.844,0,0,0-.972,2.786v6.592h-1.85V123.392h1.85v2.015h.047a3.95,3.95,0,0,1,3.77-2.205,4.944,4.944,0,0,1,1.28.178,3.752,3.752,0,0,1,1.281.64,3.41,3.41,0,0,1,1.008,1.269,4.542,4.542,0,0,1,.391,1.992v7.967h-1.85Z" transform="translate(-351.413 -98.647)" fill="#d5edc4"/>
    <path id="Path_11" data-name="Path 11" d="M514.9,133.111h-.047a3.219,3.219,0,0,1-1.672,1.458,6.2,6.2,0,0,1-2.312.438,4.559,4.559,0,0,1-3.154-1.02,3.242,3.242,0,0,1-1.138-2.514,3.278,3.278,0,0,1,1.031-2.608,5.591,5.591,0,0,1,3.4-1.02h.19q2.395-.142,3.7-.19v-.9a2.863,2.863,0,0,0-.676-2.016,3.074,3.074,0,0,0-2.335-.735,3.491,3.491,0,0,0-2.241.581,2.679,2.679,0,0,0-.889,1.672h-1.826a4.051,4.051,0,0,1,1.553-2.857,5.757,5.757,0,0,1,3.426-.913,5.492,5.492,0,0,1,3.6,1.031,3.635,3.635,0,0,1,1.233,2.953v5.881q0,.5.047,1.09t.119,1.233H514.9Zm0-4.055-3.13.142a5.069,5.069,0,0,0-2.4.569,1.751,1.751,0,0,0-.806,1.612,1.872,1.872,0,0,0,.735,1.506,3,3,0,0,0,1.968.6,4.628,4.628,0,0,0,1.269-.178,4.066,4.066,0,0,0,1.174-.545,2.73,2.73,0,0,0,.865-.937,2.615,2.615,0,0,0,.32-1.3Z" transform="translate(-405.617 -98.075)" fill="#d5edc4"/>
    <path id="Path_12" data-name="Path 12" d="M588.479,128.087a3.458,3.458,0,0,0-.735-2.466,2.5,2.5,0,0,0-1.873-.759,3.142,3.142,0,0,0-2.348,1.008,3.845,3.845,0,0,0-.972,2.786v6.592H580.7V123.392h1.85v2.015h.047a3.95,3.95,0,0,1,3.77-2.205,4.946,4.946,0,0,1,1.281.178,3.75,3.75,0,0,1,1.28.64,3.41,3.41,0,0,1,1.008,1.269,4.545,4.545,0,0,1,.391,1.992v7.967h-1.85Z" transform="translate(-464.964 -98.647)" fill="#d5edc4"/>
    <path id="Path_13" data-name="Path 13" d="M656.721,133.111h-.047A3.22,3.22,0,0,1,655,134.57a6.205,6.205,0,0,1-2.312.438,4.558,4.558,0,0,1-3.154-1.02,3.242,3.242,0,0,1-1.138-2.514,3.277,3.277,0,0,1,1.031-2.608,5.591,5.591,0,0,1,3.4-1.02h.19q2.395-.142,3.7-.19v-.9a2.863,2.863,0,0,0-.676-2.016,3.074,3.074,0,0,0-2.335-.735,3.492,3.492,0,0,0-2.241.581,2.68,2.68,0,0,0-.889,1.672h-1.826a4.05,4.05,0,0,1,1.553-2.857,5.757,5.757,0,0,1,3.426-.913,5.492,5.492,0,0,1,3.6,1.031,3.635,3.635,0,0,1,1.233,2.953v5.881q0,.5.047,1.09t.119,1.233h-2.016Zm0-4.055-3.13.142a5.069,5.069,0,0,0-2.4.569,1.751,1.751,0,0,0-.806,1.612,1.872,1.872,0,0,0,.735,1.506,3,3,0,0,0,1.968.6,4.628,4.628,0,0,0,1.269-.178,4.065,4.065,0,0,0,1.174-.545,2.728,2.728,0,0,0,.866-.937,2.615,2.615,0,0,0,.32-1.3Z" transform="translate(-519.168 -98.075)" fill="#d5edc4"/>
    <path id="Path_14" data-name="Path 14" d="M290.527,202.4h1.85v8.038h.047a9.423,9.423,0,0,1,.569-.77,3.866,3.866,0,0,1,.783-.688,4.524,4.524,0,0,1,1.209-.569,5.425,5.425,0,0,1,1.636-.226,5.528,5.528,0,0,1,1.932.356,5.3,5.3,0,0,1,1.766,1.1,5.377,5.377,0,0,1,1.292,1.921,7.121,7.121,0,0,1,.486,2.738,7.238,7.238,0,0,1-.427,2.514,5.989,5.989,0,0,1-1.2,2,5.232,5.232,0,0,1-1.826,1.293,5.713,5.713,0,0,1-2.264.45,4.715,4.715,0,0,1-1.517-.225,3.7,3.7,0,0,1-1.126-.593,4.537,4.537,0,0,1-.759-.747,7.1,7.1,0,0,1-.557-.83h-.047v2.063h-1.85Zm8.489,8.584a3.649,3.649,0,0,0-2.751-1.138,3.692,3.692,0,0,0-2.751,1.174,4.66,4.66,0,0,0-1.138,3.379,4.879,4.879,0,0,0,1.067,3.213,3.553,3.553,0,0,0,2.893,1.292,3.285,3.285,0,0,0,2.786-1.3,5.24,5.24,0,0,0,.984-3.249,4.691,4.691,0,0,0-1.091-3.367" transform="translate(-232.623 -162.064)" fill="#d5edc4"/>
    <rect id="Rectangle_19" data-name="Rectangle 19" width="1.85" height="17.832" transform="translate(73.269 40.341)" fill="#d5edc4"/>
    <path id="Path_15" data-name="Path 15" d="M407.767,239.305a6.333,6.333,0,0,1-1.186,2.015,5.436,5.436,0,0,1-1.932,1.411,6.345,6.345,0,0,1-2.6.51,6.762,6.762,0,0,1-2.715-.51,5.232,5.232,0,0,1-1.932-1.4,5.725,5.725,0,0,1-1.115-2.015,7.708,7.708,0,0,1-.356-2.336,6.772,6.772,0,0,1,.4-2.324,6.334,6.334,0,0,1,1.186-2.015,5.433,5.433,0,0,1,1.932-1.411,6.342,6.342,0,0,1,2.6-.51,6.766,6.766,0,0,1,2.715.51,5.231,5.231,0,0,1,1.932,1.4,5.752,5.752,0,0,1,1.115,2,7.682,7.682,0,0,1,.356,2.348,6.781,6.781,0,0,1-.4,2.324m-8.726,1a4.182,4.182,0,0,0,6.023,0,5.5,5.5,0,0,0,0-6.639,4.181,4.181,0,0,0-6.023,0,5.5,5.5,0,0,0,0,6.639" transform="translate(-317.023 -184.737)" fill="#d5edc4"/>
    <path id="Path_16" data-name="Path 16" d="M480.26,234.586a2.274,2.274,0,0,0-.771-1.577,3.137,3.137,0,0,0-2.146-.628,3.794,3.794,0,0,0-2.063.5,1.531,1.531,0,0,0-.782,1.351,1.431,1.431,0,0,0,.711,1.281,6.907,6.907,0,0,0,2.395.735,9.962,9.962,0,0,1,3.616,1.138,2.488,2.488,0,0,1,1.15,2.253,3.36,3.36,0,0,1-.273,1.328,3.087,3.087,0,0,1-.877,1.15,4.55,4.55,0,0,1-1.577.818,7.659,7.659,0,0,1-2.3.308,7.51,7.51,0,0,1-2.3-.308,3.986,3.986,0,0,1-1.518-.842,3.382,3.382,0,0,1-.842-1.21,5.706,5.706,0,0,1-.368-1.458h1.85a2.216,2.216,0,0,0,.794,1.518,3.481,3.481,0,0,0,2.336.64,4.859,4.859,0,0,0,2.336-.486,1.5,1.5,0,0,0,.889-1.363,1.242,1.242,0,0,0-.154-.64,1.314,1.314,0,0,0-.534-.462,5.073,5.073,0,0,0-1.067-.379q-.688-.178-1.826-.367a11.587,11.587,0,0,1-1.743-.415,5.457,5.457,0,0,1-1.328-.64,2.747,2.747,0,0,1-.9-.984,2.952,2.952,0,0,1-.32-1.422,3.191,3.191,0,0,1,1.34-2.7,5.757,5.757,0,0,1,3.521-1,5.025,5.025,0,0,1,3.308,1.067,3.454,3.454,0,0,1,1.292,2.8Z" transform="translate(-378.181 -184.737)" fill="#d5edc4"/>
    <path id="Path_17" data-name="Path 17" d="M544.5,234.586a2.275,2.275,0,0,0-.771-1.577,3.137,3.137,0,0,0-2.146-.628,3.794,3.794,0,0,0-2.063.5,1.531,1.531,0,0,0-.782,1.351,1.431,1.431,0,0,0,.711,1.281,6.908,6.908,0,0,0,2.395.735,9.962,9.962,0,0,1,3.616,1.138,2.488,2.488,0,0,1,1.15,2.253,3.359,3.359,0,0,1-.273,1.328,3.086,3.086,0,0,1-.877,1.15,4.55,4.55,0,0,1-1.577.818,7.659,7.659,0,0,1-2.3.308,7.511,7.511,0,0,1-2.3-.308,3.986,3.986,0,0,1-1.518-.842,3.382,3.382,0,0,1-.842-1.21,5.7,5.7,0,0,1-.367-1.458h1.85a2.216,2.216,0,0,0,.794,1.518,3.481,3.481,0,0,0,2.336.64,4.859,4.859,0,0,0,2.336-.486,1.5,1.5,0,0,0,.889-1.363,1.242,1.242,0,0,0-.154-.64,1.314,1.314,0,0,0-.534-.462,5.073,5.073,0,0,0-1.067-.379q-.688-.178-1.826-.367a11.588,11.588,0,0,1-1.743-.415,5.459,5.459,0,0,1-1.328-.64,2.746,2.746,0,0,1-.9-.984,2.951,2.951,0,0,1-.32-1.422,3.191,3.191,0,0,1,1.34-2.7,5.757,5.757,0,0,1,3.521-1,5.025,5.025,0,0,1,3.308,1.067,3.454,3.454,0,0,1,1.292,2.8Z" transform="translate(-429.621 -184.737)" fill="#d5edc4"/>
    <path id="Path_18" data-name="Path 18" d="M613.828,239.305a6.335,6.335,0,0,1-1.186,2.015,5.437,5.437,0,0,1-1.932,1.411,6.345,6.345,0,0,1-2.6.51,6.764,6.764,0,0,1-2.715-.51,5.233,5.233,0,0,1-1.932-1.4,5.727,5.727,0,0,1-1.115-2.015,7.708,7.708,0,0,1-.356-2.336,6.772,6.772,0,0,1,.4-2.324,6.334,6.334,0,0,1,1.186-2.015,5.433,5.433,0,0,1,1.932-1.411,6.343,6.343,0,0,1,2.6-.51,6.764,6.764,0,0,1,2.715.51,5.23,5.23,0,0,1,1.932,1.4,5.751,5.751,0,0,1,1.115,2,7.681,7.681,0,0,1,.356,2.348,6.781,6.781,0,0,1-.4,2.324m-8.726,1a4.182,4.182,0,0,0,6.023,0,5.5,5.5,0,0,0,0-6.639,4.181,4.181,0,0,0-6.023,0,5.5,5.5,0,0,0,0,6.639" transform="translate(-482.015 -184.737)" fill="#d5edc4"/>
    <path id="Path_19" data-name="Path 19" d="M697.149,235.868a3.111,3.111,0,0,0-.593-2.122,2.88,2.88,0,0,0-3.924.249,3.325,3.325,0,0,0-.818,2.324v7.161h-1.85v-7.611a3.155,3.155,0,0,0-.581-2.122,2.445,2.445,0,0,0-1.909-.652,2.639,2.639,0,0,0-2.016.9,3.3,3.3,0,0,0-.83,2.324v7.161h-1.85V231.624H684.6v1.9h.047A5.344,5.344,0,0,1,686.028,232a3.65,3.65,0,0,1,2.181-.569,3.692,3.692,0,0,1,1.34.226,2.987,2.987,0,0,1,1.565,1.3,4.791,4.791,0,0,1,.367.794,4.9,4.9,0,0,1,1.4-1.731,3.7,3.7,0,0,1,2.229-.593,3.884,3.884,0,0,1,2.9,1.008A4.026,4.026,0,0,1,699,235.37v8.109h-1.849Z" transform="translate(-546.697 -185.308)" fill="#d5edc4"/>
  </g>
</svg>
